PathFileType	4	(X/Y/Z)	Patient4_TMGait_0pt7_01_right_15.trc.trc
DataRate	CameraRate	NumFrames	NumMarkers	Units	OrigDataRate	OrigDataStartFrame	OrigNumFrames
89.171974522293	89.171974522293	4	33	mm	89.171974522293	36	       141
Frame#	Time	Sacral			L.Shoulder			Chest			R.Shoulder			Neck			R.ASIS			L.ASIS			R.Thigh.Superior			R.Thigh.Lateral			R.Thigh.Inferior			R.Patella			L.Thigh.Superior			L.Thigh.Lateral			L.Thigh.Inferior			L.Patella			L.Shank.Superior			L.Shank.Lateral			L.Shank.Inferior			R.Shank.Superior			R.Shank.Lateral			R.Shank.Inferior			R.Heel			R.Midfoot.Superior			R.Midfoot.Lateral			R.Toe			L.Heel			L.Midfoot.Lateral			L.Midfoot.Superior			L.Toe			L.Elbow			L.Wrist			R.Elbow			R.Wrist			
		X1	Y1	Z1	X2	Y2	Z2	X3	Y3	Z3	X4	Y4	Z4	X5	Y5	Z5	X6	Y6	Z6	X7	Y7	Z7	X8	Y8	Z8	X9	Y9	Z9	X10	Y10	Z10	X11	Y11	Z11	X12	Y12	Z12	X13	Y13	Z13	X14	Y14	Z14	X15	Y15	Z15	X16	Y16	Z16	X17	Y17	Z17	X18	Y18	Z18	X19	Y19	Z19	X20	Y20	Z20	X21	Y21	Z21	X22	Y22	Z22	X23	Y23	Z23	X24	Y24	Z24	X25	Y25	Z25	X26	Y26	Z26	X27	Y27	Z27	X28	Y28	Z28	X29	Y29	Z29	X30	Y30	Z30	X31	Y31	Z31	X32	Y32	Z32	X33	Y33	Z33	

36	17.032500000000	841.932818222082	1003.406188477460	491.563784933914	1050.716783814821	1431.655784539507	325.068026738327	1136.313807841727	1354.064266595547	493.115870047456	1040.193300543205	1429.595548494099	659.473104859122	1037.608944202338	1488.706968078353	480.357249249764	1062.753611188662	939.122197125336	623.029751223568	922.651240178787	827.225012635558	300.343603707739	1122.919180664442	749.822319455450	600.055363650860	1046.887189340716	635.400715181367	655.209287702261	1134.289795191185	589.497553479675	581.758722077154	1142.552994419363	502.559411254091	588.545876967591	1087.855107316912	731.968609305884	369.612213092260	994.772248804260	623.402530754871	300.181286486405	1074.029746087958	533.035668873745	358.674357773448	1061.322206453960	448.642662789859	355.783080862561	991.414029397568	394.241399262313	348.764539834849	852.090051130139	353.115308941815	295.942444164212	834.848375602413	226.297298415954	354.304733916096	1123.134606819255	412.372331355253	595.323187469922	1058.075438495731	302.625661630589	653.406061110632	1114.041045813377	211.707111059228	594.632998943008	996.156149531889	43.159252025085	557.332706124653	1165.103762334147	98.093626550473	600.406148308933	1076.242525649906	36.908612321012	635.353716333436	1284.582427836076	46.509120946751	633.658780033561	642.412227965315	156.626605407229	387.448871498236	703.800002988013	115.526157161946	308.145944013329	806.853165192815	129.161579632494	332.123126245125	890.859734308415	32.301691878074	304.885144832076	1086.323992619263	1096.970047318068	181.385282066658	1334.844967042734	1085.281805362432	234.071117669751	902.027477314083	1105.194069946376	754.494696224728	878.473734955702	843.969152166202	748.421168360245	
37	17.043714285714	841.692628510014	1005.345429238060	494.983164182184	1049.857707114426	1433.295477673018	327.268428661788	1136.826264603762	1355.259337511712	494.370713495133	1042.485461467121	1430.817281167547	661.613569424258	1038.370258373408	1490.073087301209	482.620752874409	1063.082285752297	940.408523741831	624.660041332393	869.581351670309	781.734804011041	284.990006438999	1119.750399175186	748.918170735503	602.776947460109	1041.429677057954	635.821177654394	657.159845297011	1128.027129438952	588.701091170193	583.562254808812	1134.896078959704	502.247520114916	589.910682283920	1092.373806800402	735.583732724166	372.155709672409	1004.242513496671	624.408380541367	301.845893512960	1086.277539779811	536.025648564594	360.670570823941	1074.881075862448	450.373021077653	357.153819491554	1003.153226754981	396.025771336438	350.232117728211	862.327548790946	359.632531785878	297.627336678730	841.121885578022	233.341638236821	355.665446174091	1115.499269412798	412.415074501662	596.672821583148	1050.154245534474	302.695396084576	654.447796062756	1106.233047353828	211.837194949107	595.426381246363	988.359777869638	43.179361865986	557.541776552188	1157.355051267855	98.268092676924	600.910050949342	1068.426456393804	36.871730918612	635.542513371559	1276.782142790731	46.359963401387	633.953754485193	646.236935112389	172.031908218202	388.894485301172	705.671783817201	128.362090256947	309.275367883570	809.650824731383	136.360017634909	333.361692768874	888.200639088734	33.221577276658	305.347993892177	1078.584480901467	1096.680976316606	185.582905684195	1326.793660384491	1071.680364171886	236.966920760458	911.214804372898	1102.965536595338	758.072948221395	898.599857990037	840.920315405176	751.792451666200	
38	17.054928571429	841.296397063238	1007.101949143402	498.277018142375	1048.644530271869	1434.707874782928	329.313522936993	1137.182895037539	1356.256298656884	495.382724344887	1044.766216456150	1431.785746090596	663.643298574581	1038.961981946041	1491.230460736882	484.793868453363	1063.274108288750	941.527722125593	626.093596262559	823.464736273855	742.405324119762	271.889694335987	1116.303314237556	747.915197485793	605.300754458053	1035.921718824494	636.187595816283	659.052402758120	1121.618111865479	587.901532672652	585.237504908801	1127.160011921360	501.950382164118	591.254229676465	1096.741249067279	739.369800759239	374.584889674635	1013.550451366624	625.819146609900	303.326830987970	1098.188384307035	539.524713405496	362.521120552156	1088.284880680604	452.713125547708	358.483025447047	1015.071290723420	398.239869611109	351.594161381750	872.990066275620	366.052470100783	299.291857263284	848.309228486697	240.316746394836	357.069956188059	1107.820102883330	412.445567582390	597.951583145818	1042.216237048895	302.734522050885	655.415962596881	1098.423506120410	211.951647589125	596.180003010178	980.545093803638	43.226739757019	557.712687158418	1149.626779196752	98.347953375974	601.370048029430	1060.590393766102	36.829788956595	635.688180162559	1268.988916856267	46.047659231623	634.199960879939	651.553299103683	186.312471319277	390.562267460065	709.169139656248	140.606440892638	310.569711953915	813.789315459082	143.712084679623	334.687907132160	887.489744079428	34.974074201884	305.761566668444	1070.851387776539	1096.332903267168	189.665135118646	1317.956825154915	1057.084010688688	239.696286247154	920.554464651392	1100.755023082004	761.768696134828	919.626415351995	838.302732155379	755.286733480852	
39	17.066142857143	840.748384575868	1008.660088905773	501.405412155348	1047.151511827685	1435.870834938451	331.189979765777	1137.395098794146	1357.031022372126	496.171726825641	1047.012606227548	1432.498668062636	665.556546240678	1039.423947285970	1492.181646486019	486.858544460277	1063.317530352482	942.495256269541	627.393074969671	792.899394421805	716.986143502558	263.913565977333	1112.707069589002	746.923150072740	607.558760008064	1030.550235444221	636.535467165657	660.887367451446	1115.262489102817	587.144496240364	586.791283359861	1119.551642033573	501.683554887521	592.590948922712	1100.871485949437	743.302272650079	376.882997827522	1022.514837637617	627.640587698663	304.617199678066	1109.606019130774	543.516298128873	364.156074987159	1101.387089011501	455.657949707380	359.664293697562	1027.040727530134	400.871895276829	352.776600293268	883.926275408625	372.218531498695	300.889224676852	856.416292328641	246.985327512153	358.440949907088	1100.262240580830	412.467194712536	599.158998671123	1034.394465622288	302.771313444995	656.322190479928	1090.684152132076	212.051499504389	596.892488921525	972.712213088067	43.310958649858	557.860638279196	1141.914066175943	98.344065747182	601.779649373045	1052.739000594074	36.796721681563	635.804213104966	1261.202102596675	45.603337751003	634.405231058706	658.337929139917	198.924423624888	392.381553500090	714.352129522295	151.739163449411	311.973897713035	819.376296405856	150.893604016798	336.011543470469	889.050437428908	37.529789121823	306.102031851968	1063.164498391160	1095.863352718701	193.627171645128	1308.236385739006	1041.605803334253	242.218423461771	930.115223449459	1098.514656333687	765.537648734322	941.491367774208	836.179583788304	758.824432645976	
